<?xml version="1.0"?>
<svg version="1.1" xmlns="http://www.w3.org/2000/svg" width="400" height="50" style=""><path fill="#e94949" d="M16.04248046875,18.72802734375q0-1.1962890625,0.41015625-1.6064453125t1.14501953125-0.41015625q0.205078125,0,0.435791015625,0.0341796875t0.435791015625,0.1025390625q1.14501953125-0.22216796875,2.17041015625-0.22216796875q1.65771484375,0,3.0078125,0.5810546875q2.17041015625,0.9228515625,3.5888671875,2.734375t2.0849609375,4.25537109375t0.66650390625,5.00732421875q0,1.435546875-0.196533203125,2.99072265625t-0.760498046875,2.88818359375q-0.49560546875,1.1962890625-1.3671875,2.503662109375t-1.973876953125,2.47802734375t-2.37548828125,2.05078125t-2.572021484375,1.187744140625l0,0.13671875q0,0.341796875-0.179443359375,0.555419921875t-0.435791015625,0.32470703125t-0.589599609375,0.145263671875t-0.623779296875,0.0341796875q-0.1708984375,0-0.487060546875-0.0341796875t-0.615234375-0.128173828125t-0.504150390625-0.247802734375t-0.205078125-0.42724609375q0-3.1103515625-0.162353515625-6.229248046875t-0.367431640625-6.23779296875t-0.367431640625-6.229248046875t-0.162353515625-6.23779296875z M19.2724609375,17.8564453125q0.1708984375,1.640625,0.22216796875,3.272705078125t0.15380859375,3.272705078125q0.2734375,4.23828125,0.63232421875,8.433837890625t0.42724609375,8.433837890625q1.640625-1.07666015625,2.811279296875-2.4609375t1.922607421875-3.0078125t1.102294921875-3.409423828125t0.350341796875-3.682861328125q0-1.3671875-0.2392578125-3.0078125t-0.8203125-3.16162109375t-1.563720703125-2.75146484375t-2.452392578125-1.76025390625q-0.3076171875-0.1025390625-0.743408203125-0.1708984375t-1.392822265625-0.068359375q-0.1025390625,0-0.205078125,0.0341796875t-0.205078125,0.0341796875z M33.468481445312,37.98828125l0-1.6064453125q0-0.87158203125,0.042724609375-2.469482421875t0.111083984375-3.50341796875t0.18798828125-3.973388671875t0.2734375-3.905029296875t0.367431640625-3.289794921875t0.487060546875-2.1533203125q0.1708984375-0.39306640625,0.56396484375-0.49560546875t0.76904296875-0.1025390625q0.59814453125,0,1.051025390625,0.264892578125t0.452880859375,0.965576171875l-0.3076171875,0.341796875q-0.59814453125,3.94775390625-0.76904296875,7.9296875t-0.2392578125,7.9638671875q0.42724609375-0.66650390625,0.965576171875-1.307373046875t1.1962890625-1.136474609375t1.41845703125-0.794677734375t1.666259765625-0.299072265625q1.162109375,0,1.922607421875,0.70068359375t1.256103515625,1.820068359375t0.73486328125,2.503662109375t0.367431640625,2.7685546875t0.179443359375,2.623291015625t0.15380859375,2.059326171875q-0.32470703125,0.4443359375-0.95703125,0.4443359375l-0.05126953125,0q-0.2734375,0-0.59814453125-0.068359375t-0.42724609375-0.341796875l0.0341796875,0.0341796875q-0.2392578125-0.52978515625-0.32470703125-1.529541015625t-0.13671875-2.20458984375t-0.179443359375-2.469482421875t-0.384521484375-2.2900390625t-0.751953125-1.69189453125t-1.3330078125-0.70068359375l-0.1025390625,0q-1.00830078125,0-1.69189453125,0.615234375q-0.7177734375,0.6494140625-1.162109375,1.708984375t-0.68359375,2.3583984375t-0.367431640625,2.503662109375t-0.196533203125,2.1875t-0.1708984375,1.444091796875q-0.1025390625,0.39306640625-0.606689453125,0.521240234375t-0.863037109375,0.128173828125q-0.83740234375,0-1.3671875-0.478515625q-0.39306640625-0.93994140625-0.46142578125-2.34130859375t-0.068359375-2.734375z M49.817822265625,31.34033203125q0-0.70068359375,0.247802734375-1.17919921875t1.051025390625-0.478515625q0.3076171875,0,0.76904296875,0.093994140625t0.52978515625,0.469970703125q0.1708984375,1.00830078125,0.18798828125,2.1875t0.11962890625,2.2216796875q0.39306640625-0.76904296875,1.00830078125-1.65771484375t1.4013671875-1.640625t1.708984375-1.24755859375t1.8798828125-0.49560546875q0.068359375,0,0.25634765625,0.05126953125t0.350341796875,0.145263671875t0.196533203125,0.213623046875t-0.18798828125,0.22216796875q-0.068359375,0.205078125-0.29052734375,0.247802734375t-0.39306640625,0.042724609375q-0.1025390625,0-0.32470703125-0.08544921875q-1.2646484375,0.66650390625-2.1533203125,1.8115234375t-1.45263671875,2.537841796875t-0.8203125,2.939453125t-0.25634765625,3.016357421875q0,0.73486328125-0.333251953125,0.888671875t-1.068115234375,0.15380859375q-0.39306640625,0-0.828857421875-0.08544921875t-0.606689453125-0.546875q-0.3076171875-0.97412109375-0.504150390625-2.23876953125t-0.299072265625-2.606201171875t-0.145263671875-2.640380859375t-0.042724609375-2.34130859375z M61.262377929687,34.62158203125q0-0.341796875,0.076904296875-0.90576171875t0.179443359375-1.119384765625t0.2392578125-1.033935546875t0.32470703125-0.615234375q0.13671875-0.13671875,0.469970703125-0.2734375t0.70068359375-0.196533203125t0.68359375,0.05126953125t0.384521484375,0.452880859375q-0.2392578125,0.3076171875-0.435791015625,1.051025390625t-0.299072265625,1.649169921875q-0.08544921875,0.76904296875-0.08544921875,1.58935546875l0,0.29052734375q0.01708984375,0.95703125,0.1708984375,1.76025390625t0.469970703125,1.324462890625t0.880126953125,0.521240234375q1.1962890625,0,2.1875-1.102294921875t1.76025390625-2.691650390625t1.35009765625-3.375244140625t0.9912109375-3.118896484375q0.1025390625-0.39306640625,0.487060546875-0.52978515625t0.828857421875-0.093994140625t0.794677734375,0.213623046875t0.418701171875,0.41015625q-0.341796875,2.87109375-0.538330078125,5.7421875t-0.196533203125,5.7763671875q0,0.56396484375,0.05126953125,1.033935546875t-0.05126953125,0.80322265625t-0.452880859375,0.52978515625t-1.119384765625,0.196533203125q-0.1708984375,0-0.435791015625-0.0341796875t-0.546875-0.111083984375t-0.478515625-0.230712890625t-0.196533203125-0.35888671875q0-1.2646484375,0.093994140625-2.59765625t0.264892578125-2.58056640625q-0.46142578125,0.66650390625-1.016845703125,1.324462890625t-1.221923828125,1.187744140625t-1.435546875,0.845947265625t-1.65771484375,0.316162109375q-1.2646484375,0-1.990966796875-0.59814453125t-1.09375-1.495361328125t-0.46142578125-1.956787109375t-0.093994140625-2.05078125z M76.63759765625,29.76806640625q0-0.13671875,0.162353515625-0.247802734375t0.367431640625-0.162353515625t0.418701171875-0.068359375t0.316162109375-0.01708984375q0.76904296875,0,1.31591796875,0.68359375t0.948486328125,1.751708984375t0.68359375,2.3583984375t0.538330078125,2.572021484375t0.504150390625,2.349853515625t0.555419921875,1.649169921875q0.52978515625-1.04248046875,0.965576171875-2.51220703125t0.80322265625-3.0419921875t0.6494140625-3.101806640625t0.452880859375-2.674560546875q0.068359375-0.3076171875,0.42724609375-0.384521484375t0.59814453125-0.076904296875q0.39306640625,0,0.68359375,0.111083984375t0.29052734375,0.487060546875q0,0.63232421875-0.15380859375,1.717529296875t-0.418701171875,2.435302734375t-0.615234375,2.7685546875t-0.751953125,2.691650390625t-0.83740234375,2.255859375t-0.863037109375,1.392822265625q-0.205078125,0.2392578125-0.640869140625,0.333251953125t-0.726318359375,0.093994140625q-1.00830078125,0-1.6748046875-0.52978515625l0,0.0341796875q-1.04248046875-0.97412109375-1.5380859375-2.37548828125t-0.7177734375-2.92236328125t-0.401611328125-3.02490234375t-0.606689453125-2.734375q-0.068359375-0.13671875-0.1708984375-0.401611328125t-0.2392578125-0.52978515625t-0.230712890625-0.504150390625t-0.093994140625-0.3759765625z M96.672705078125,42.10693359375q0-0.1025390625,0.068359375-0.726318359375t0.179443359375-1.52099609375t0.247802734375-1.93115234375t0.2392578125-1.956787109375t0.179443359375-1.62353515625t0.076904296875-0.93994140625q-0.13671875-0.068359375-0.333251953125-0.196533203125t-0.196533203125-0.299072265625q0-0.2392578125,0.230712890625-0.384521484375t0.401611328125-0.213623046875q0.068359375-0.87158203125,0.1708984375-2.4267578125t0.316162109375-3.358154296875t0.59814453125-3.6572265625t1.016845703125-3.36669921875t1.52099609375-2.469482421875t2.1875-0.95703125t2.1533203125,0.8203125t1.392822265625,2.13623046875t0.8203125,2.92236328125t0.42724609375,3.19580078125t0.179443359375,2.9736328125t0.068359375,2.2216796875q0.0341796875,0.52978515625,0.25634765625,0.709228515625t0.487060546875,0.247802734375t0.478515625,0.15380859375t0.213623046875,0.42724609375q0,0.39306640625-0.478515625,0.546875t-0.751953125,0.18798828125q0.1708984375,2.13623046875,0.469970703125,4.2041015625t0.794677734375,4.169921875q0.068359375,0.39306640625,0.18798828125,0.794677734375t0.11962890625,0.777587890625q0,0.2734375-0.18798828125,0.452880859375t-0.487060546875,0.281982421875t-0.59814453125,0.13671875t-0.504150390625,0.0341796875q-0.76904296875,0-1.298828125-0.29052734375t-0.70068359375-1.11083984375q-0.46142578125-2.20458984375-0.90576171875-4.63134765625q-0.3759765625-2.10205078125-0.3759765625-4.08447265625q0-0.3076171875,0.01708984375-0.615234375q-1.435546875,0-2.88818359375,0.068359375t-2.78564453125,0.5126953125q-0.0341796875,0.46142578125-0.1708984375,1.7431640625t-0.3076171875,2.75146484375t-0.350341796875,2.811279296875t-0.213623046875,1.905517578125q-0.0341796875,0.2392578125-0.350341796875,0.452880859375t-0.68359375,0.230712890625t-0.6494140625-0.230712890625t-0.281982421875-0.880126953125z M99.868505859375,31.75048828125q1.3330078125-0.3076171875,2.674560546875-0.35888671875t2.708740234375-0.11962890625q-0.068359375-0.42724609375-0.0341796875-0.880126953125t0.0341796875-0.914306640625q0-1.00830078125-0.05126953125-2.34130859375t-0.15380859375-2.7001953125t-0.264892578125-2.691650390625t-0.367431640625-2.3583984375t-0.435791015625-1.649169921875t-0.504150390625-0.615234375q-0.52978515625,0.0341796875-0.999755859375,0.914306640625t-0.8544921875,2.23876953125t-0.70068359375,3.0419921875t-0.52978515625,3.289794921875t-0.350341796875,2.99072265625t-0.1708984375,2.1533203125z M113.89362792969,35.52734375q0-0.93994140625,0.179443359375-2.008056640625t0.615234375-1.956787109375t1.204833984375-1.4697265625t1.96533203125-0.5810546875q0.80322265625,0,1.55517578125,0.264892578125t1.41845703125,0.726318359375q0.205078125-0.341796875,0.6494140625-0.418701171875t0.7861328125-0.076904296875q0.13671875,0,0.384521484375,0.01708984375t0.487060546875,0.1025390625t0.418701171875,0.205078125t0.213623046875,0.341796875q0.13671875,1.1962890625,0.18798828125,2.384033203125t0.15380859375,2.366943359375q0.1708984375,2.20458984375,0.52978515625,4.35791015625t0.35888671875,4.35791015625q0,1.04248046875-0.093994140625,2.255859375t-0.49560546875,2.247314453125t-1.170654296875,1.717529296875t-2.13623046875,0.68359375q-1.23046875,0-1.888427734375-0.435791015625t-1.187744140625-1.461181640625q0.0341796875-0.341796875,0.435791015625-0.452880859375t0.692138671875-0.111083984375q0.2734375,0,0.555419921875,0.05126953125t0.452880859375,0.1708984375l0.42724609375,0.2734375q0.63232421875-1.298828125,0.76904296875-2.8369140625t0.13671875-2.9736328125q0-1.1962890625-0.11962890625-2.366943359375t-0.2392578125-2.349853515625q-1.1962890625,2.17041015625-3.64013671875,2.17041015625q-1.1279296875,0-1.837158203125-0.478515625t-1.09375-1.21337890625t-0.52978515625-1.65771484375t-0.145263671875-1.845703125z M115.99567871094,35.68115234375q0,0.42724609375,0.0341796875,1.102294921875t0.179443359375,1.324462890625t0.418701171875,1.119384765625t0.76904296875,0.469970703125q0.93994140625,0,1.48681640625-0.73486328125t0.863037109375-1.751708984375t0.504150390625-2.10205078125t0.478515625-1.785888671875q-0.0341796875-0.2392578125-0.0341796875-0.469970703125l0-0.469970703125q-0.39306640625-0.73486328125-1.14501953125-1.273193359375t-1.55517578125-0.726318359375q-0.1025390625-0.01708984375-0.18798828125-0.01708984375q-0.478515625,0-0.7861328125,0.56396484375q-0.39306640625,0.68359375-0.615234375,1.632080078125t-0.316162109375,1.871337890625t-0.093994140625,1.24755859375z M128.4998046875,35.52734375q0-0.93994140625,0.179443359375-2.008056640625t0.615234375-1.956787109375t1.204833984375-1.4697265625t1.96533203125-0.5810546875q0.80322265625,0,1.55517578125,0.264892578125t1.41845703125,0.726318359375q0.205078125-0.341796875,0.6494140625-0.418701171875t0.7861328125-0.076904296875q0.13671875,0,0.384521484375,0.01708984375t0.487060546875,0.1025390625t0.418701171875,0.205078125t0.213623046875,0.341796875q0.13671875,1.1962890625,0.18798828125,2.384033203125t0.15380859375,2.366943359375q0.1708984375,2.20458984375,0.52978515625,4.35791015625t0.35888671875,4.35791015625q0,1.04248046875-0.093994140625,2.255859375t-0.49560546875,2.247314453125t-1.170654296875,1.717529296875t-2.13623046875,0.68359375q-1.23046875,0-1.888427734375-0.435791015625t-1.187744140625-1.461181640625q0.0341796875-0.341796875,0.435791015625-0.452880859375t0.692138671875-0.111083984375q0.2734375,0,0.555419921875,0.05126953125t0.452880859375,0.1708984375l0.42724609375,0.2734375q0.63232421875-1.298828125,0.76904296875-2.8369140625t0.13671875-2.9736328125q0-1.1962890625-0.11962890625-2.366943359375t-0.2392578125-2.349853515625q-1.1962890625,2.17041015625-3.64013671875,2.17041015625q-1.1279296875,0-1.837158203125-0.478515625t-1.09375-1.21337890625t-0.52978515625-1.65771484375t-0.145263671875-1.845703125z M130.60185546875,35.68115234375q0,0.42724609375,0.0341796875,1.102294921875t0.179443359375,1.324462890625t0.418701171875,1.119384765625t0.76904296875,0.469970703125q0.93994140625,0,1.48681640625-0.73486328125t0.863037109375-1.751708984375t0.504150390625-2.10205078125t0.478515625-1.785888671875q-0.0341796875-0.2392578125-0.0341796875-0.469970703125l0-0.469970703125q-0.39306640625-0.73486328125-1.14501953125-1.273193359375t-1.55517578125-0.726318359375q-0.1025390625-0.01708984375-0.18798828125-0.01708984375q-0.478515625,0-0.7861328125,0.56396484375q-0.39306640625,0.68359375-0.615234375,1.632080078125t-0.316162109375,1.871337890625t-0.093994140625,1.24755859375z M143.10598144531,36.12548828125q0-1.162109375,0.316162109375-2.23876953125t0.948486328125-1.922607421875t1.580810546875-1.35009765625t2.196044921875-0.504150390625q0.76904296875,0,1.700439453125,0.230712890625t1.751708984375,0.68359375t1.3671875,1.153564453125t0.546875,1.6064453125q0,0.42724609375-0.145263671875,0.6494140625t-0.589599609375,0.22216796875l-0.18798828125-0.0341796875q0.49560546875,1.3330078125,0.8544921875,2.734375t0.70068359375,2.802734375q0.13671875,0.2734375,0.205078125,0.487060546875t0.068359375,0.418701171875q0,0.2734375-0.15380859375,0.452880859375t-0.401611328125,0.264892578125t-0.5126953125,0.11962890625t-0.469970703125,0.0341796875q-0.73486328125,0-1.102294921875-0.25634765625t-0.52978515625-0.70068359375t-0.196533203125-0.999755859375t-0.13671875-1.119384765625q-0.205078125,0.66650390625-0.538330078125,1.298828125t-0.7861328125,1.136474609375t-1.068115234375,0.80322265625t-1.38427734375,0.299072265625q-1.1279296875,0-1.89697265625-0.6494140625t-1.239013671875-1.597900390625t-0.68359375-2.025146484375t-0.213623046875-1.99951171875z M145.53273925781,35.88623046875q0,0.63232421875,0.08544921875,1.3330078125t0.281982421875,1.38427734375t0.504150390625,1.290283203125t0.76904296875,1.068115234375q0.83740234375-0.90576171875,1.239013671875-2.20458984375t0.7177734375-2.503662109375t0.7177734375-2.06787109375t1.239013671875-0.863037109375q0.52978515625,0,0.888671875,0.18798828125q-0.1708984375-0.42724609375-0.56396484375-0.828857421875t-0.880126953125-0.73486328125t-1.00830078125-0.546875t-0.982666015625-0.213623046875q-0.13671875,0-0.316162109375,0.042724609375t-0.281982421875,0.008544921875q-0.70068359375,0.205078125-1.153564453125,0.709228515625t-0.73486328125,1.187744140625t-0.401611328125,1.4013671875t-0.11962890625,1.35009765625z M157.91723632813,31.34033203125q0-0.70068359375,0.247802734375-1.17919921875t1.051025390625-0.478515625q0.3076171875,0,0.76904296875,0.093994140625t0.52978515625,0.469970703125q0.1708984375,1.00830078125,0.18798828125,2.1875t0.11962890625,2.2216796875q0.39306640625-0.76904296875,1.00830078125-1.65771484375t1.4013671875-1.640625t1.708984375-1.24755859375t1.8798828125-0.49560546875q0.068359375,0,0.25634765625,0.05126953125t0.350341796875,0.145263671875t0.196533203125,0.213623046875t-0.18798828125,0.22216796875q-0.068359375,0.205078125-0.29052734375,0.247802734375t-0.39306640625,0.042724609375q-0.1025390625,0-0.32470703125-0.08544921875q-1.2646484375,0.66650390625-2.1533203125,1.8115234375t-1.45263671875,2.537841796875t-0.8203125,2.939453125t-0.25634765625,3.016357421875q0,0.73486328125-0.333251953125,0.888671875t-1.068115234375,0.15380859375q-0.39306640625,0-0.828857421875-0.08544921875t-0.606689453125-0.546875q-0.3076171875-0.97412109375-0.504150390625-2.23876953125t-0.299072265625-2.606201171875t-0.145263671875-2.640380859375t-0.042724609375-2.34130859375z M170.09665527344,37.49267578125q0-0.63232421875,0.025634765625-1.854248046875t0.179443359375-2.486572265625t0.504150390625-2.2900390625t1.051025390625-1.31591796875q0.1708984375-0.068359375,0.555419921875-0.11962890625t0.76904296875-0.0341796875t0.68359375,0.13671875t0.299072265625,0.4443359375q0,0.068359375-0.068359375,0.18798828125t-0.35888671875,0.3759765625q-0.52978515625,1.4697265625-0.6494140625,2.92236328125t-0.11962890625,2.99072265625q0,0.90576171875,0.059814453125,1.8115234375t0.196533203125,1.82861328125q0.2734375-0.39306640625,0.555419921875-1.17919921875t0.59814453125-1.717529296875t0.6494140625-1.888427734375t0.751953125-1.7431640625t0.9228515625-1.298828125t1.136474609375-0.5126953125q0.70068359375,0,1.170654296875,0.880126953125t0.87158203125,2.03369140625t0.751953125,2.34130859375t0.845947265625,1.820068359375q0.2392578125-0.2392578125,0.384521484375-0.623779296875t0.230712890625-0.828857421875t0.1025390625-0.880126953125t0.01708984375-0.743408203125q0-0.76904296875-0.230712890625-1.666259765625t-0.487060546875-1.683349609375t-0.487060546875-1.324462890625t-0.230712890625-0.623779296875q0-0.13671875,0.145263671875-0.22216796875t0.333251953125-0.13671875t0.384521484375-0.068359375t0.299072265625-0.01708984375q0.63232421875,0,1.085205078125,0.70068359375t0.7177734375,1.62353515625t0.384521484375,1.871337890625t0.11962890625,1.478271484375q0,0.66650390625-0.1025390625,1.41845703125t-0.384521484375,1.392822265625t-0.828857421875,1.068115234375t-1.38427734375,0.42724609375q-1.00830078125,0-1.65771484375-0.56396484375t-1.051025390625-1.3671875t-0.63232421875-1.751708984375t-0.435791015625-1.717529296875q-0.39306640625,0.90576171875-0.7177734375,2.2900390625t-0.8203125,2.71728515625t-1.2646484375,2.27294921875t-1.99951171875,0.93994140625t-1.751708984375-0.606689453125t-0.828857421875-1.666259765625l0.0341796875,0.0341796875q-0.205078125-0.76904296875-0.264892578125-1.5380859375t-0.059814453125-1.5380859375z M187.74482421875,36.12548828125q0-1.162109375,0.316162109375-2.23876953125t0.948486328125-1.922607421875t1.580810546875-1.35009765625t2.196044921875-0.504150390625q0.76904296875,0,1.700439453125,0.230712890625t1.751708984375,0.68359375t1.3671875,1.153564453125t0.546875,1.6064453125q0,0.42724609375-0.145263671875,0.6494140625t-0.589599609375,0.22216796875l-0.18798828125-0.0341796875q0.49560546875,1.3330078125,0.8544921875,2.734375t0.70068359375,2.802734375q0.13671875,0.2734375,0.205078125,0.487060546875t0.068359375,0.418701171875q0,0.2734375-0.15380859375,0.452880859375t-0.401611328125,0.264892578125t-0.5126953125,0.11962890625t-0.469970703125,0.0341796875q-0.73486328125,0-1.102294921875-0.25634765625t-0.52978515625-0.70068359375t-0.196533203125-0.999755859375t-0.13671875-1.119384765625q-0.205078125,0.66650390625-0.538330078125,1.298828125t-0.7861328125,1.136474609375t-1.068115234375,0.80322265625t-1.38427734375,0.299072265625q-1.1279296875,0-1.89697265625-0.6494140625t-1.239013671875-1.597900390625t-0.68359375-2.025146484375t-0.213623046875-1.99951171875z M190.17158203125,35.88623046875q0,0.63232421875,0.08544921875,1.3330078125t0.281982421875,1.38427734375t0.504150390625,1.290283203125t0.76904296875,1.068115234375q0.83740234375-0.90576171875,1.239013671875-2.20458984375t0.7177734375-2.503662109375t0.7177734375-2.06787109375t1.239013671875-0.863037109375q0.52978515625,0,0.888671875,0.18798828125q-0.1708984375-0.42724609375-0.56396484375-0.828857421875t-0.880126953125-0.73486328125t-1.00830078125-0.546875t-0.982666015625-0.213623046875q-0.13671875,0-0.316162109375,0.042724609375t-0.281982421875,0.008544921875q-0.70068359375,0.205078125-1.153564453125,0.709228515625t-0.73486328125,1.187744140625t-0.401611328125,1.4013671875t-0.11962890625,1.35009765625z M202.55607910156,42.1923828125q0-0.49560546875,0.042724609375-1.04248046875t0.076904296875-1.025390625l0.1025390625-2.5634765625q0.1708984375-3.076171875,0.418701171875-6.0498046875t0.418701171875-6.015625q0.1025390625-1.6748046875,0.15380859375-3.289794921875t0.15380859375-3.289794921875q-0.068359375-0.13671875-0.068359375-0.18798828125q0-0.2392578125,0.179443359375-0.3759765625t0.418701171875-0.230712890625t0.504150390625-0.128173828125t0.401611328125-0.0341796875l0.39306640625,0q0.52978515625,0.068359375,0.76904296875,0.333251953125t0.3076171875,0.63232421875t0.0341796875,0.7861328125t-0.0341796875,0.777587890625q0,2.47802734375-0.11962890625,5.050048828125t-0.2734375,5.1611328125t-0.281982421875,5.17822265625t-0.128173828125,5.118408203125l0,1.1962890625q0,0.80322265625-0.452880859375,1.0595703125t-1.256103515625,0.25634765625q-0.70068359375,0-1.23046875-0.3076171875t-0.52978515625-1.00830078125z"/><path fill="#" d=""/></svg>
